<svg width="512" height="512" viewBox="0 0 512 512" xmlns="http://www.w3.org/2000/svg">
  <rect width="512" height="512" rx="64" fill="#1C2128"/>
  <g transform="translate(256 256)">
    <g transform="translate(-220 -250) scale(6.7)">
      <circle cx="21" cy="25" r="14" fill="none" stroke="#D9A441" stroke-width="8.5"/>
      <circle cx="43" cy="25" r="14" fill="none" stroke="#D9A441" stroke-width="8.5"/>
      <path d="M 10 35 C 6 48 8 58 15 66 C 19 70 25 72 32 72 C 39 72 45 70 49 66 C 56 58 58 48 54 35"
            fill="none" stroke="#D9A441" stroke-width="8.5" stroke-linecap="round"/>
      <rect x="16" y="33" width="32" height="13" fill="#1C2128"/>
      <path d="M 10 35 C 14 39 17 42 21 43" fill="none" stroke="#D9A441" stroke-width="8.5" stroke-linecap="round"/>
      <circle cx="11" cy="17" r="3" fill="#F5EFE0"/>
      <circle cx="53" cy="17" r="3" fill="#F5EFE0"/>
      <circle cx="20" cy="61" r="3" fill="#F5EFE0"/>
      <circle cx="44" cy="61" r="3" fill="#F5EFE0"/>
      <circle cx="32" cy="67" r="2.5" fill="#F5EFE0"/>
    </g>
  </g>
</svg>
